<svg width="54" height="56" viewBox="0 0 54 56" fill="none" xmlns="http://www.w3.org/2000/svg">
<rect x="1" y="1" width="52" height="54" rx="26" stroke="#959EAD" stroke-width="2"/>
<path d="M25.2544 23.0625C24.9419 23.375 24.9731 23.8438 25.2544 24.1562L29.0356 27.75H20.0356C19.6294 27.75 19.2856 28.0625 19.2856 28.5V29.5C19.2856 29.9062 19.6294 30.25 20.0356 30.25H29.0356L25.2544 33.8125C24.9731 34.125 24.9419 34.5938 25.2544 34.9062L25.9419 35.5938C26.2231 35.875 26.7231 35.875 27.0044 35.5938L33.0669 29.5C33.3794 29.2188 33.3794 28.75 33.0669 28.4688L27.0044 22.375C26.7231 22.0938 26.2544 22.0938 25.9419 22.375L25.2544 23.0625Z" fill="#959EAD"/>
</svg>
