<svg width="64" height="64" viewBox="0 0 64 64" fill="none" xmlns="http://www.w3.org/2000/svg">
<g filter="url(#filter0_d)">
<rect x="59" y="55" width="54" height="54" rx="27" transform="rotate(-180 59 55)" stroke="#183B56" stroke-width="2"/>
</g>
<path d="M33.0625 34.9062C33.375 34.5938 33.3438 34.125 33.0625 33.8125L29.2812 30.25H38.25C38.6875 30.25 39 29.9062 39 29.5V28.5C39 28.0625 38.6875 27.75 38.25 27.75H29.2812L33.0625 24.1562C33.3438 23.8438 33.3438 23.375 33.0625 23.0625L32.375 22.375C32.0625 22.0938 31.5938 22.0938 31.3125 22.375L25.2188 28.4688C24.9375 28.75 24.9375 29.2188 25.2188 29.5312L31.3125 35.5938C31.5938 35.875 32.0625 35.875 32.375 35.5938L33.0625 34.9062Z" fill="#183B56"/>
<defs>
<filter id="filter0_d" x="0" y="0" width="64" height="64" filterUnits="userSpaceOnUse" color-interpolation-filters="sRGB">
<feFlood flood-opacity="0" result="BackgroundImageFix"/>
<feColorMatrix in="SourceAlpha" type="matrix" values="0 0 0 0 0 0 0 0 0 0 0 0 0 0 0 0 0 0 127 0"/>
<feOffset dy="4"/>
<feGaussianBlur stdDeviation="2"/>
<feColorMatrix type="matrix" values="0 0 0 0 0 0 0 0 0 0 0 0 0 0 0 0 0 0 0.25 0"/>
<feBlend mode="normal" in2="BackgroundImageFix" result="effect1_dropShadow"/>
<feBlend mode="normal" in="SourceGraphic" in2="effect1_dropShadow" result="shape"/>
</filter>
</defs>
</svg>
