<svg width="22" height="22" viewBox="0 0 22 22" fill="none" xmlns="http://www.w3.org/2000/svg">
<path fill-rule="evenodd" clip-rule="evenodd" d="M6.53369 8.74362C7.63762 7.17485 8.32669 5.37472 8.60314 3.33679C8.62947 3.14265 8.76689 2.98123 8.95551 2.92286C10.8566 2.33452 11.9374 3.26943 11.9196 5.40122C11.9161 5.81502 11.897 6.18283 11.8564 6.74537C11.7656 8.00189 11.7728 8.34479 11.9135 8.57552C12.0487 8.79732 12.4877 8.87304 13.526 8.67591C13.8536 8.61371 14.1823 8.5432 14.5463 8.45851C14.707 8.42113 15.8645 8.1387 16.1604 8.07482C16.7248 7.95295 17.1297 7.90138 17.4858 7.92322C18.4505 7.98238 18.9624 8.6035 19.0509 9.79348C19.2066 11.8891 18.7253 16.0985 18.2451 17.6489C17.7544 19.2333 16.8987 19.8314 14.8445 19.8675C13.5239 19.8907 11.4926 19.8907 8.74135 19.8674C8.03902 19.8511 7.40254 19.7151 6.83639 19.4608C6.99531 19.1318 7.08431 18.7632 7.08431 18.374V10.31C7.08431 9.71802 6.87839 9.17371 6.53369 8.74362Z" fill="#1565D8"/>
<path opacity="0.3" fill-rule="evenodd" clip-rule="evenodd" d="M3.52526 8.7981C2.68288 8.7981 2 9.47504 2 10.3101V18.3741C2 19.2092 2.68288 19.8861 3.52526 19.8861H4.54211C5.38448 19.8861 6.06737 19.2092 6.06737 18.3741V10.3101C6.06737 9.47504 5.38448 8.7981 4.54211 8.7981H3.52526Z" fill="#1565D8"/>
</svg>
